<svg xmlns="http://www.w3.org/2000/svg" height="40" viewBox="0 96 960 960" width="40"><path d="M202.667 936q-34.334 0-58.5-24.167Q120 887.667 120 853.333V311.334q0-34.334 32-47.501 32-13.166 56.667 11.501l59.999 59.999-46 45.999L250 408.666l46-46 112.666 112.667-45.999 46L390 548.666l46-46L549.333 616l-45.999 46 27.333 27.333 46-46L689.334 756l-46 46 27.333 27.333 46-46 56.666 56.666q26.667 26.667 12.833 61.334Q772.333 936 735.999 936H202.667Zm10.666-93.333h419.336L213.333 423.331v419.336Z"/></svg>